<svg width="71" height="83" viewBox="0 0 71 83" fill="none" xmlns="http://www.w3.org/2000/svg">
<path d="M33.7109 22.3555H41.7656C42.6289 22.3555 43.3281 21.6563 43.3281 20.793V0H38.3984L32.1484 6.25V20.793C32.1484 21.6563 32.8477 22.3555 33.7109 22.3555Z" fill="black"/>
<path d="M25.4062 24.6524C25.6796 25.1993 26.2304 25.5157 26.8046 25.5157C27.039 25.5157 27.2773 25.461 27.4999 25.3517C28.2734 24.9649 28.5858 24.0275 28.1991 23.254L26.6014 20.0587C26.2147 19.2852 25.2772 18.9728 24.5037 19.3594C23.7302 19.7461 23.4178 20.6836 23.8045 21.4571L25.4022 24.6524H25.4062Z" fill="black"/>
<path d="M19.0009 26.9225L22.3876 28.0514C22.5517 28.1061 22.7196 28.1335 22.8798 28.1335C23.536 28.1335 24.1454 27.7194 24.3642 27.0632C24.6376 26.2429 24.1962 25.3601 23.3759 25.0866L19.9892 23.9577C19.1689 23.6842 18.2861 24.1257 18.0126 24.946C17.7392 25.7663 18.1806 26.649 19.0009 26.9225Z" fill="black"/>
<path d="M50.9648 19.3634C50.1913 18.9767 49.2539 19.2931 48.8671 20.0626L47.2694 23.2579C46.8826 24.0313 47.1951 24.9688 47.9686 25.3556C48.1951 25.4689 48.4295 25.5197 48.6639 25.5197C49.2381 25.5197 49.7889 25.2033 50.0623 24.6564L51.66 21.4611C52.0467 20.6876 51.7342 19.7502 50.9608 19.3634H50.9648Z" fill="black"/>
<path d="M51.1142 27.0625C51.3329 27.7187 51.9423 28.1328 52.5986 28.1328C52.7626 28.1328 52.9267 28.1054 53.0908 28.0508L56.4775 26.9219C57.2978 26.6484 57.7392 25.7657 57.4657 24.9453C57.1923 24.1249 56.3095 23.6797 55.4891 23.957L52.1025 25.0859C51.2821 25.3593 50.8408 26.2421 51.1142 27.0625Z" fill="black"/>
<path d="M27.3594 68.2705H46.5234V71.6025H27.3594V68.2705Z" fill="black"/>
<path d="M68.9102 7.98438H46.4492V14.3711H68.9102C69.7735 14.3711 70.4727 13.6719 70.4727 12.8086V9.54688C70.4727 8.6836 69.7735 7.98438 68.9102 7.98438Z" fill="black"/>
<path fill-rule="evenodd" clip-rule="evenodd" d="M16.5631 35.1457C16.5631 35.1457 21.0831 60.2506 21.2021 60.5889H19.5688C15.9681 60.5889 13.0486 63.5076 13.0486 67.1083V67.1174C13.0486 70.1252 15.0856 72.6576 17.8554 73.4099C17.5603 74.1532 17.3982 74.964 17.3982 75.8116C17.3982 79.413 20.3218 82.3366 23.9225 82.3366C27.5233 82.3359 30.4468 79.413 30.4468 75.8116C30.4468 75.0495 30.316 74.3174 30.0752 73.6368H42.6277C42.3869 74.3174 42.256 75.0496 42.256 75.8123C42.256 79.413 45.1789 82.3359 48.7804 82.3359C52.3811 82.3366 55.3047 79.413 55.3047 75.8123C55.3047 72.2109 52.3811 69.2873 48.7804 69.2873C48.5799 69.288 48.3816 69.2963 48.1867 69.3144C48.0754 69.297 47.9613 69.2873 47.845 69.288L19.5688 69.2873C18.3697 69.2873 17.3982 68.3158 17.3982 67.1174V67.1083C17.3982 65.9099 18.3697 64.9384 19.5688 64.9384C19.5688 64.9384 45.0794 64.9377 51.0442 64.9377C54.2142 64.9384 56.9255 62.6599 57.4711 59.5373C58.3403 54.5649 59.9124 45.5714 60.9027 39.9101C61.234 38.0116 60.71 36.0644 59.4705 34.589C58.2311 33.1136 56.4022 32.2618 54.4758 32.2618H23.9225C22.7102 32.2618 21.5369 32.5993 20.5243 33.2166C19.582 30.7182 17.1741 29 14.421 29H2.17477C0.974299 29 0 29.9743 0 31.1748C0 32.3753 0.974299 33.3496 2.17477 33.3496H14.421C15.4767 33.3496 16.3794 34.1067 16.5631 35.1457ZM48.7804 73.6375C49.9801 73.6368 50.9551 74.6118 50.9551 75.8116C50.9551 77.0121 49.9801 77.9871 48.7804 77.9871C47.5799 77.9864 46.6056 77.0121 46.6056 75.8116C46.6056 74.6118 47.5799 73.6375 48.7804 73.6375ZM23.9225 73.6368C25.123 73.6375 26.0973 74.6118 26.0973 75.8123C26.0973 77.0121 25.123 77.9864 23.9225 77.9864C22.722 77.9871 21.7477 77.0121 21.7477 75.8123C21.7477 74.6118 22.722 73.6368 23.9225 73.6368Z" fill="black"/>
</svg>
